<svg width="51" height="49" viewBox="0 0 51 49" fill="none" xmlns="http://www.w3.org/2000/svg">
<path d="M11.8603 18.0563C19.8603 16.0563 20.8603 8.55636 25.3603 3.55638C33.9103 -5.94368 47.1802 5.55627 41.8603 15.0563C38.3624 21.3025 53.3603 21.5563 50.3603 38.0563C47.3603 54.5563 28.8603 49.0563 25.3603 42.5563C21.8603 36.0563 16.3603 41.5563 5.86026 38.0563C-4.63974 34.5563 1.86026 20.5563 11.8603 18.0563Z" fill="#F4F4F4"/>
<path d="M47.0086 38.2832C47.0072 38.2785 47.0057 38.2739 47.0042 38.2693L45.5898 33.9718V23.4479C45.5898 21.7223 44.1859 20.3184 42.4602 20.3184H33.3247V25.4389C33.3247 28.315 30.9849 30.6548 28.1088 30.6548H27.369V35.6878C27.369 37.4134 28.7729 38.8173 30.4985 38.8173H41.1156L43.8483 40.6357C44.2075 40.8789 44.6138 41 45.0192 41C45.4538 41 45.8876 40.8608 46.2613 40.5835C46.9851 40.0464 47.2785 39.1435 47.0086 38.2832ZM39.9078 34.5772C39.3688 34.7807 38.7669 34.5086 38.5635 33.9695L38.1092 32.7658H34.9337L34.4741 33.9725C34.3156 34.3887 33.9194 34.6447 33.499 34.6447C33.3756 34.6447 33.2501 34.6226 33.128 34.5761C32.5895 34.371 32.3194 33.7683 32.5244 33.2299L35.3971 25.6872C35.4001 25.6793 35.4032 25.6714 35.4064 25.6635C35.5941 25.2048 36.0356 24.908 36.5312 24.9076C37.0296 24.905 37.4689 25.2029 37.6575 25.6614C37.6614 25.6708 37.6651 25.6803 37.6687 25.6899L40.5153 33.2328C40.7188 33.7719 40.4468 34.3738 39.9078 34.5772Z" fill="#F0A880"/>
<path d="M35.7283 30.6793H37.3218L36.5287 28.5776L35.7283 30.6793Z" fill="#F0A880"/>
<path d="M28.1088 10H16.1471C14.4215 10 13.0176 11.4039 13.0176 13.1295V23.7232L11.6032 28.0211C11.6017 28.0257 11.6002 28.0305 11.5987 28.0351C11.3291 28.8951 11.6226 29.7978 12.3464 30.3348C12.7201 30.612 13.1538 30.7513 13.5883 30.7513C13.9936 30.7513 14.3997 30.6303 14.7587 30.3872L17.4917 28.5685H28.1087C29.8344 28.5685 31.2383 27.1646 31.2383 25.439V13.1296C31.2383 11.4039 29.8344 10 28.1088 10ZM26.4819 23.9186C26.2782 24.1223 26.0112 24.2241 25.7443 24.2241C25.4773 24.2241 25.2104 24.1223 25.0067 23.9186L24.5499 23.4617C23.7851 23.9625 22.8722 24.255 21.8918 24.255C19.2085 24.255 17.0255 22.0719 17.0255 19.3887C17.0255 16.7054 19.2085 14.5224 21.8918 14.5224C24.575 14.5224 26.758 16.7054 26.758 19.3887C26.758 20.3379 26.4839 21.2238 26.012 21.9733L26.482 22.4432C26.8893 22.8508 26.8893 23.5112 26.4819 23.9186Z" fill="#F0A880"/>
<path d="M21.8917 16.6089C20.3589 16.6089 19.1118 17.856 19.1118 19.3888C19.1118 20.9216 20.3589 22.1687 21.8917 22.1687C22.2924 22.1687 22.6732 22.0828 23.0177 21.9296L22.5606 21.4725C22.1532 21.0651 22.1532 20.4046 22.5606 19.9973C22.968 19.5899 23.6285 19.5899 24.0359 19.9973L24.4686 20.43C24.5991 20.1082 24.6716 19.7568 24.6716 19.3888C24.6716 17.8559 23.4246 16.6089 21.8917 16.6089Z" fill="#F0A880"/>
</svg>
