<svg width="51" height="49" viewBox="0 0 51 49" fill="none" xmlns="http://www.w3.org/2000/svg">
<path d="M11.8603 18.0563C19.8603 16.0563 20.8603 8.55636 25.3603 3.55638C33.9103 -5.94368 47.1802 5.55627 41.8603 15.0563C38.3624 21.3025 53.3603 21.5563 50.3603 38.0563C47.3603 54.5563 28.8603 49.0563 25.3603 42.5563C21.8603 36.0563 16.3603 41.5563 5.86026 38.0563C-4.63974 34.5563 1.86026 20.5563 11.8603 18.0563Z" fill="#F4F4F4"/>
<path d="M13.6355 25.0232C13.2829 25.0291 13 25.3177 13 25.6704V37.615C13 37.7933 13.1453 37.9386 13.3236 37.9386H16.3868C16.6754 37.9386 16.9293 37.7468 17.0087 37.4697L19.8665 27.3967C20.0506 26.7457 19.7018 26.0617 19.0663 25.8312C17.8961 25.403 16.1 24.9826 13.6355 25.0232Z" fill="#4D4D4D"/>
<path d="M41.4175 32.1257C38.8349 32.1257 33.6675 35.3962 31.0849 35.3962C28.5022 35.3962 25.594 33.4161 25.594 33.4161C25.594 33.4161 29.0737 34.0613 31.0829 34.0613C33.0921 34.0613 33.6656 33.3754 33.6656 32.4474C33.6656 30.1863 29.8255 29.8356 27.8841 29.5411C25.9776 28.4794 24.9875 27.6404 21.8294 27.373C21.81 27.5571 21.781 27.7392 21.7306 27.9233L19.1363 37.0683C22.0755 38.4052 27.1343 40.5229 29.7906 40.5229C33.6656 40.5229 43.9983 35.3555 43.9983 34.0652C43.9983 32.7748 42.7079 32.1257 41.4175 32.1257Z" fill="#4D4D4D"/>
<path d="M42.603 10.3991C42.4906 10.0387 42.1186 9.76744 41.7427 9.71707C39.4565 9.41482 36.3236 9.00407 33.8164 11.2593C32.1502 12.7609 31.9293 15.2835 33.2216 17.066C32.0243 18.2944 31.2648 19.5654 30.7862 20.6833C30.298 19.6642 29.7245 18.7516 29.151 17.9669C29.4086 17.3295 29.5443 16.6281 29.5365 15.888C29.521 14.3942 28.9165 12.9294 27.9187 11.9723C24.8613 9.03119 21.027 9.41675 17.9464 9.72675L17.7875 9.74225C17.4117 9.781 17.092 10.0329 16.968 10.3894C16.8459 10.7459 16.9408 11.1431 17.2121 11.4046C18.5916 12.7299 18.8725 14.1384 19.1709 15.6284C19.4363 16.9536 19.7095 18.3254 20.8275 19.4007C21.8853 20.4179 23.2823 20.9294 24.6463 20.9294C25.8746 20.9294 27.0681 20.5012 27.973 19.6661C28.8371 20.9507 29.6469 22.5375 29.9744 24.3026C29.9821 24.3433 30.0054 24.3762 30.017 24.4149C30.0325 24.4614 30.0461 24.5041 30.0674 24.5467C30.1023 24.6164 30.1449 24.6784 30.1953 24.7366C30.2205 24.7676 30.2418 24.7986 30.2708 24.8257C30.3367 24.8877 30.4123 24.9361 30.4936 24.9768C30.5169 24.9884 30.5363 25.0059 30.5614 25.0156C30.6758 25.0621 30.7978 25.095 30.9257 25.095C30.9838 25.095 31.0439 25.0892 31.1039 25.0795C31.1466 25.0718 31.1776 25.0466 31.2183 25.033C31.2706 25.0156 31.3171 24.9981 31.3655 24.9749C31.4314 24.9419 31.4895 24.9013 31.5438 24.8548C31.5825 24.8218 31.6174 24.7869 31.6523 24.7482C31.6988 24.6939 31.7356 24.6397 31.7704 24.5758C31.7976 24.5273 31.8189 24.4769 31.8363 24.4246C31.8576 24.3607 31.8693 24.2987 31.877 24.2328C31.8809 24.1979 31.8983 24.1689 31.8983 24.1321C31.9003 23.9809 31.9778 21.0224 34.7406 18.2828C35.1533 18.4533 35.6048 18.5676 36.0872 18.5966C36.1783 18.6024 36.2693 18.6063 36.3604 18.6063C37.488 18.6063 38.6079 18.1936 39.4042 17.4787C40.3458 16.6301 40.5996 15.547 40.8438 14.5008C41.1014 13.3944 41.3456 12.3521 42.3899 11.4124C42.6689 11.1605 42.7154 10.7594 42.603 10.3991Z" fill="#F0A880"/>
</svg>
